<svg width="230" height="150" viewBox="0 0 230 150" fill="none" xmlns="http://www.w3.org/2000/svg">
<path d="M43.0304 61.8887C42.9947 62.1387 42.9749 62.3457 42.9709 62.5098C42.967 62.6738 42.9769 62.8027 43.0007 62.8965C43.0284 62.9902 43.0701 63.0566 43.1256 63.0957C43.1811 63.1309 43.2504 63.1484 43.3337 63.1484C43.4447 63.1484 43.5498 63.0918 43.6489 62.9785C43.748 62.8613 43.8352 62.6836 43.9105 62.4453C43.9898 62.2031 44.0513 61.8984 44.0949 61.5312C44.1425 61.1641 44.1662 60.7285 44.1662 60.2246C44.1662 59.6621 44.1306 59.1602 44.0592 58.7188C43.9878 58.2773 43.8748 57.9023 43.7202 57.5938C43.5656 57.2852 43.3634 57.0508 43.1137 56.8906C42.8679 56.7266 42.5686 56.6445 42.2157 56.6445C41.9461 56.6445 41.6845 56.7129 41.4307 56.8496C41.181 56.9824 40.9471 57.1719 40.729 57.418C40.515 57.6602 40.3187 57.9531 40.1403 58.2969C39.9659 58.6367 39.8152 59.0137 39.6884 59.4277C39.5655 59.8418 39.4683 60.2871 39.397 60.7637C39.3296 61.2402 39.2959 61.7363 39.2959 62.252C39.2959 63.5098 39.4882 64.4473 39.8727 65.0645C40.2573 65.6855 40.7984 65.9961 41.4962 65.9961C41.849 65.9961 42.1781 65.9551 42.4833 65.873C42.7886 65.7949 43.1057 65.6758 43.4348 65.5156V66.2715C43.1097 66.4199 42.7846 66.5312 42.4595 66.6055C42.1344 66.6797 41.7935 66.7168 41.4367 66.7168C40.4258 66.7168 39.6765 66.3438 39.1888 65.5977C38.7052 64.8516 38.4594 63.7402 38.4514 62.2637C38.4475 61.6738 38.4871 61.1094 38.5704 60.5703C38.6536 60.0273 38.7726 59.5215 38.9272 59.0527C39.0858 58.584 39.2761 58.1582 39.4981 57.7754C39.724 57.3887 39.9778 57.0605 40.2592 56.791C40.5447 56.5176 40.8539 56.3066 41.1869 56.1582C41.5199 56.0059 41.8748 55.9297 42.2514 55.9297C42.7232 55.9297 43.1315 56.0254 43.4764 56.2168C43.8253 56.4043 44.1127 56.6777 44.3387 57.0371C44.5647 57.3926 44.7312 57.8301 44.8382 58.3496C44.9492 58.8691 45.0047 59.4609 45.0047 60.125C45.0008 60.7969 44.9552 61.373 44.868 61.8535C44.7847 62.3301 44.6658 62.7207 44.5111 63.0254C44.3565 63.3301 44.1682 63.5547 43.9462 63.6992C43.7282 63.8398 43.4843 63.9102 43.2148 63.9102C42.9055 63.9102 42.6756 63.832 42.5249 63.6758C42.3743 63.5195 42.299 63.3086 42.299 63.043C42.1483 63.3438 41.9858 63.5645 41.8113 63.7051C41.6369 63.8418 41.4268 63.9102 41.181 63.9102C40.8083 63.9102 40.5288 63.7734 40.3425 63.5C40.1562 63.2227 40.063 62.7871 40.063 62.1934C40.063 61.9785 40.0749 61.748 40.0987 61.502C40.1264 61.2559 40.17 61.0098 40.2295 60.7637C40.2929 60.5137 40.3742 60.2754 40.4733 60.0488C40.5724 59.8184 40.6934 59.6172 40.8361 59.4453C40.9828 59.2695 41.1552 59.1289 41.3534 59.0234C41.5517 58.918 41.7776 58.8652 42.0314 58.8652C42.182 58.8652 42.3228 58.8828 42.4536 58.918C42.5844 58.9531 42.6796 58.9883 42.739 59.0234L43.5062 58.8418L43.0304 61.8887ZM42.4238 59.8027C42.3882 59.7559 42.3327 59.7148 42.2573 59.6797C42.186 59.6406 42.0948 59.6211 41.9838 59.6211C41.8649 59.6211 41.7578 59.6621 41.6627 59.7441C41.5675 59.8262 41.4823 59.9355 41.407 60.0723C41.3356 60.209 41.2742 60.3652 41.2226 60.541C41.175 60.7129 41.1334 60.8906 41.0977 61.0742C41.066 61.2578 41.0422 61.4395 41.0264 61.6191C41.0145 61.7949 41.0085 61.9531 41.0085 62.0938C41.0085 62.4688 41.0323 62.7383 41.0799 62.9023C41.1275 63.0664 41.2186 63.1484 41.3534 63.1484C41.401 63.1484 41.4486 63.1387 41.4962 63.1191C41.5437 63.0996 41.5933 63.0625 41.6448 63.0078C41.7003 62.9492 41.7598 62.8691 41.8232 62.7676C41.8867 62.666 41.956 62.5332 42.0314 62.3691L42.4238 59.8027Z" fill="black"/>
<path d="M9.55043 61.8887C9.51475 62.1387 9.49493 62.3457 9.49097 62.5098C9.487 62.6738 9.49691 62.8027 9.5207 62.8965C9.54845 62.9902 9.59008 63.0566 9.64558 63.0957C9.70108 63.1309 9.77046 63.1484 9.85372 63.1484C9.96472 63.1484 10.0698 63.0918 10.1689 62.9785C10.268 62.8613 10.3552 62.6836 10.4305 62.4453C10.5098 62.2031 10.5713 61.8984 10.6149 61.5312C10.6625 61.1641 10.6863 60.7285 10.6863 60.2246C10.6863 59.6621 10.6506 59.1602 10.5792 58.7188C10.5079 58.2773 10.3949 57.9023 10.2403 57.5938C10.0856 57.2852 9.88345 57.0508 9.63369 56.8906C9.38789 56.7266 9.08857 56.6445 8.73573 56.6445C8.46615 56.6445 8.20449 56.7129 7.95077 56.8496C7.701 56.9824 7.4671 57.1719 7.24905 57.418C7.03497 57.6602 6.83873 57.9531 6.66033 58.2969C6.48589 58.6367 6.33524 59.0137 6.20838 59.4277C6.08548 59.8418 5.98835 60.2871 5.91699 60.7637C5.84959 61.2402 5.8159 61.7363 5.8159 62.252C5.8159 63.5098 6.00817 64.4473 6.39273 65.0645C6.77728 65.6855 7.31843 65.9961 8.01618 65.9961C8.36902 65.9961 8.69807 65.9551 9.00334 65.873C9.3086 65.7949 9.62576 65.6758 9.95481 65.5156V66.2715C9.62972 66.4199 9.30464 66.5312 8.97955 66.6055C8.65446 66.6797 8.31352 66.7168 7.95671 66.7168C6.94577 66.7168 6.19649 66.3438 5.70885 65.5977C5.22519 64.8516 4.97939 63.7402 4.97146 62.2637C4.9675 61.6738 5.00714 61.1094 5.0904 60.5703C5.17365 60.0273 5.29258 59.5215 5.4472 59.0527C5.60578 58.584 5.79607 58.1582 6.01808 57.7754C6.24406 57.3887 6.49779 57.0605 6.77926 56.791C7.06471 56.5176 7.37394 56.3066 7.70695 56.1582C8.03997 56.0059 8.39479 55.9297 8.77141 55.9297C9.24319 55.9297 9.65153 56.0254 9.99644 56.2168C10.3453 56.4043 10.6327 56.6777 10.8587 57.0371C11.0847 57.3926 11.2512 57.8301 11.3582 58.3496C11.4692 58.8691 11.5247 59.4609 11.5247 60.125C11.5208 60.7969 11.4752 61.373 11.388 61.8535C11.3047 62.3301 11.1858 62.7207 11.0312 63.0254C10.8766 63.3301 10.6882 63.5547 10.4662 63.6992C10.2482 63.8398 10.0044 63.9102 9.73478 63.9102C9.42555 63.9102 9.19561 63.832 9.04496 63.6758C8.89431 63.5195 8.81899 63.3086 8.81899 63.043C8.66834 63.3438 8.50579 63.5645 8.33136 63.7051C8.15692 63.8418 7.9468 63.9102 7.701 63.9102C7.32834 63.9102 7.04885 63.7734 6.86252 63.5C6.67619 63.2227 6.58302 62.7871 6.58302 62.1934C6.58302 61.9785 6.59492 61.748 6.6187 61.502C6.64645 61.2559 6.69006 61.0098 6.74953 60.7637C6.81296 60.5137 6.89423 60.2754 6.99335 60.0488C7.09246 59.8184 7.21337 59.6172 7.3561 59.4453C7.50278 59.2695 7.67524 59.1289 7.87346 59.0234C8.07168 58.918 8.29766 58.8652 8.55139 58.8652C8.70204 58.8652 8.84277 58.8828 8.9736 58.918C9.10443 58.9531 9.19958 58.9883 9.25905 59.0234L10.0262 58.8418L9.55043 61.8887ZM8.94387 59.8027C8.90819 59.7559 8.85269 59.7148 8.77736 59.6797C8.706 59.6406 8.61482 59.6211 8.50381 59.6211C8.38488 59.6211 8.27784 59.6621 8.18269 59.7441C8.08754 59.8262 8.00231 59.9355 7.92698 60.0723C7.85562 60.209 7.79417 60.3652 7.74263 60.541C7.69506 60.7129 7.65343 60.8906 7.61775 61.0742C7.58604 61.2578 7.56225 61.4395 7.54639 61.6191C7.5345 61.7949 7.52855 61.9531 7.52855 62.0938C7.52855 62.4688 7.55234 62.7383 7.59991 62.9023C7.64748 63.0664 7.73867 63.1484 7.87346 63.1484C7.92103 63.1484 7.96861 63.1387 8.01618 63.1191C8.06375 63.0996 8.11331 63.0625 8.16485 63.0078C8.22035 62.9492 8.27982 62.8691 8.34325 62.7676C8.40668 62.666 8.47606 62.5332 8.55139 62.3691L8.94387 59.8027Z" fill="black"/>
<path d="M47.2586 41.5547C49.0862 43.2227 50 45.0781 50 47.1211C50 47.543 49.9564 47.9805 49.8692 48.4336C49.782 48.8867 49.6333 49.3516 49.4232 49.8281C49.213 50.3008 48.9296 50.7812 48.5728 51.2695C48.2199 51.7578 47.7739 52.248 47.2348 52.7402L46.6342 52.1367C47.4072 51.3828 47.9841 50.5957 48.3646 49.7754C48.7452 48.9551 48.9355 48.0957 48.9355 47.1973C48.9355 45.3379 48.1684 43.666 46.6342 42.1816L47.2586 41.5547Z" fill="black"/>
<path d="M37.7498 47.6133C37.7498 48.0352 37.6884 48.418 37.5655 48.7617C37.4465 49.1016 37.2701 49.3926 37.0362 49.6348C36.8023 49.873 36.5149 50.0586 36.1739 50.1914C35.8369 50.3203 35.4484 50.3848 35.0084 50.3848C34.5247 50.3848 34.1144 50.3223 33.7774 50.1973C33.4404 50.0723 33.1649 49.8965 32.9508 49.6699C32.7407 49.4395 32.5861 49.1641 32.487 48.8438C32.3918 48.5234 32.3442 48.166 32.3442 47.7715V42.6211H33.4028V47.6895C33.4028 47.9902 33.4305 48.2539 33.486 48.4805C33.5455 48.707 33.6406 48.8965 33.7715 49.0488C33.9023 49.2012 34.0708 49.3164 34.2769 49.3945C34.487 49.4727 34.7427 49.5117 35.044 49.5117C35.607 49.5117 36.0213 49.3516 36.2869 49.0312C36.5565 48.7109 36.6913 48.2598 36.6913 47.6777V42.6211H37.7498V47.6133Z" fill="black"/>
<path d="M17.6618 47.6133C17.6618 48.0352 17.6003 48.418 17.4774 48.7617C17.3585 49.1016 17.1821 49.3926 16.9482 49.6348C16.7143 49.873 16.4269 50.0586 16.0859 50.1914C15.7489 50.3203 15.3604 50.3848 14.9204 50.3848C14.4367 50.3848 14.0264 50.3223 13.6894 50.1973C13.3524 50.0723 13.0769 49.8965 12.8628 49.6699C12.6527 49.4395 12.4981 49.1641 12.3989 48.8438C12.3038 48.5234 12.2562 48.166 12.2562 47.7715V42.6211H13.3147V47.6895C13.3147 47.9902 13.3425 48.2539 13.398 48.4805C13.4575 48.707 13.5526 48.8965 13.6834 49.0488C13.8143 49.2012 13.9828 49.3164 14.1889 49.3945C14.399 49.4727 14.6547 49.5117 14.956 49.5117C15.519 49.5117 15.9333 49.3516 16.1989 49.0312C16.4685 48.7109 16.6033 48.2598 16.6033 47.6777V42.6211H17.6618V47.6133Z" fill="black"/>
<path d="M2.74144 52.7402C0.913812 51.0723 0 49.2285 0 47.209C0 46.7363 0.0475737 46.2656 0.142721 45.7969C0.241833 45.3242 0.39843 44.8516 0.612512 44.3789C0.830558 43.9062 1.116 43.4336 1.46884 42.9609C1.82564 42.4883 2.25777 42.0195 2.76522 41.5547L3.36584 42.1582C1.82762 43.6543 1.05852 45.3125 1.05852 47.1328C1.05852 48.0391 1.25278 48.9102 1.64129 49.7461C2.02981 50.582 2.60466 51.3711 3.36584 52.1133L2.74144 52.7402Z" fill="black"/>
<path d="M43.8511 35.7285L43.2029 36.373L39.2067 33.0859L43.2029 29.7988L43.8511 30.4492L40.6101 33.0742L43.8511 35.7285Z" fill="black"/>
<path d="M6.15491 30.4492L6.79715 29.7988L10.7933 33.0859L6.79715 36.373L6.15491 35.7285L9.39587 33.0977L6.15491 30.4492Z" fill="black"/>
<path d="M44.7847 13.5547C46.6123 15.2227 47.5261 17.0781 47.5261 19.1211C47.5261 19.543 47.4825 19.9805 47.3953 20.4336C47.3081 20.8867 47.1594 21.3516 46.9493 21.8281C46.7392 22.3008 46.4557 22.7812 46.0989 23.2695C45.7461 23.7578 45.3001 24.248 44.7609 24.7402L44.1603 24.1367C44.9334 23.3828 45.5102 22.5957 45.8908 21.7754C46.2714 20.9551 46.4617 20.0957 46.4617 19.1973C46.4617 17.3379 45.6945 15.666 44.1603 14.1816L44.7847 13.5547Z" fill="black"/>
<path d="M32.5702 17.1816C32.82 17.1816 33.0539 17.2285 33.2719 17.3223C33.4939 17.416 33.6862 17.5449 33.8488 17.709C34.0153 17.8691 34.1461 18.0586 34.2412 18.2773C34.3364 18.4922 34.384 18.7227 34.384 18.9688C34.384 19.2148 34.3364 19.4473 34.2412 19.666C34.1461 19.8809 34.0153 20.0703 33.8488 20.2344C33.6862 20.3945 33.4939 20.5215 33.2719 20.6152C33.0539 20.709 32.82 20.7559 32.5702 20.7559C32.3205 20.7559 32.0846 20.709 31.8626 20.6152C31.6445 20.5215 31.4522 20.3945 31.2857 20.2344C31.1232 20.0703 30.9943 19.8809 30.8992 19.666C30.804 19.4473 30.7565 19.2148 30.7565 18.9688C30.7565 18.7227 30.804 18.4922 30.8992 18.2773C30.9943 18.0586 31.1232 17.8691 31.2857 17.709C31.4522 17.5449 31.6445 17.416 31.8626 17.3223C32.0846 17.2285 32.3205 17.1816 32.5702 17.1816Z" fill="black"/>
<path d="M24.221 19.7773C24.221 20.3633 24.3677 20.7969 24.6611 21.0781C24.9544 21.3594 25.341 21.5 25.8207 21.5C26.3004 21.5 26.6849 21.3594 26.9744 21.0781C27.2638 20.7969 27.4085 20.3633 27.4085 19.7773V18.7812H28.3302V19.9004C28.3302 20.6895 28.1042 21.2832 27.6523 21.6816C27.2043 22.0801 26.5938 22.2793 25.8207 22.2793C24.8454 22.2793 24.1556 21.9883 23.7512 21.4062C23.3231 21.9883 22.6432 22.2793 21.7115 22.2793C20.9345 22.2793 20.32 22.0859 19.868 21.6992C19.42 21.3086 19.196 20.7598 19.196 20.0527V18.7812H20.1118V19.7773C20.1118 20.3633 20.2585 20.7969 20.5519 21.0781C20.8453 21.3594 21.2318 21.5 21.7115 21.5C22.1912 21.5 22.5758 21.3594 22.8652 21.0781C23.1546 20.7969 23.2993 20.3633 23.2993 19.7773V18.7812H24.221V19.7773Z" fill="black"/>
<path d="M14.956 17.1816C15.2057 17.1816 15.4396 17.2285 15.6577 17.3223C15.8797 17.416 16.072 17.5449 16.2345 17.709C16.401 17.8691 16.5318 18.0586 16.627 18.2773C16.7221 18.4922 16.7697 18.7227 16.7697 18.9688C16.7697 19.2148 16.7221 19.4473 16.627 19.666C16.5318 19.8809 16.401 20.0703 16.2345 20.2344C16.072 20.3945 15.8797 20.5215 15.6577 20.6152C15.4396 20.709 15.2057 20.7559 14.956 20.7559C14.7062 20.7559 14.4703 20.709 14.2483 20.6152C14.0303 20.5215 13.838 20.3945 13.6715 20.2344C13.5089 20.0703 13.3801 19.8809 13.2849 19.666C13.1898 19.4473 13.1422 19.2148 13.1422 18.9688C13.1422 18.7227 13.1898 18.4922 13.2849 18.2773C13.3801 18.0586 13.5089 17.8691 13.6715 17.709C13.838 17.5449 14.0303 17.416 14.2483 17.3223C14.4703 17.2285 14.7062 17.1816 14.956 17.1816Z" fill="black"/>
<path d="M2.74144 24.7402C0.913812 23.0723 0 21.2285 0 19.209C0 18.7363 0.0475737 18.2656 0.142721 17.7969C0.241833 17.3242 0.39843 16.8516 0.612512 16.3789C0.830558 15.9062 1.116 15.4336 1.46884 14.9609C1.82564 14.4883 2.25777 14.0195 2.76522 13.5547L3.36584 14.1582C1.82762 15.6543 1.05852 17.3125 1.05852 19.1328C1.05852 20.0391 1.25278 20.9102 1.64129 21.7461C2.02981 22.582 2.60466 23.3711 3.36584 24.1133L2.74144 24.7402Z" fill="black"/>
<path d="M44.4101 9.53906H43.423L39.3435 0H40.3307L44.4101 9.53906Z" fill="black"/>
<path d="M37.4465 0L33.367 9.53906H32.3799L36.4593 0H37.4465Z" fill="black"/>
<path d="M31.696 10.6816H25V9.83789H31.696V10.6816Z" fill="black"/>
<path d="M25 10.6816H18.304V9.83789H25V10.6816Z" fill="black"/>
<path d="M17.6261 9.53906H16.6389L12.5594 0H13.5466L17.6261 9.53906Z" fill="black"/>
<path d="M10.6624 0L6.58298 9.53906H5.59583L9.67527 0H10.6624Z" fill="black"/>
<path d="M103.03 61.8887C102.995 62.1387 102.975 62.3457 102.971 62.5098C102.967 62.6738 102.977 62.8027 103.001 62.8965C103.028 62.9902 103.07 63.0566 103.126 63.0957C103.181 63.1309 103.25 63.1484 103.334 63.1484C103.445 63.1484 103.55 63.0918 103.649 62.9785C103.748 62.8613 103.835 62.6836 103.911 62.4453C103.99 62.2031 104.051 61.8984 104.095 61.5312C104.142 61.1641 104.166 60.7285 104.166 60.2246C104.166 59.6621 104.131 59.1602 104.059 58.7188C103.988 58.2773 103.875 57.9023 103.72 57.5938C103.566 57.2852 103.363 57.0508 103.114 56.8906C102.868 56.7266 102.569 56.6445 102.216 56.6445C101.946 56.6445 101.684 56.7129 101.431 56.8496C101.181 56.9824 100.947 57.1719 100.729 57.418C100.515 57.6602 100.319 57.9531 100.14 58.2969C99.9659 58.6367 99.8152 59.0137 99.6884 59.4277C99.5655 59.8418 99.4683 60.2871 99.397 60.7637C99.3296 61.2402 99.2959 61.7363 99.2959 62.252C99.2959 63.5098 99.4882 64.4473 99.8727 65.0645C100.257 65.6855 100.798 65.9961 101.496 65.9961C101.849 65.9961 102.178 65.9551 102.483 65.873C102.789 65.7949 103.106 65.6758 103.435 65.5156V66.2715C103.11 66.4199 102.785 66.5312 102.46 66.6055C102.134 66.6797 101.793 66.7168 101.437 66.7168C100.426 66.7168 99.6765 66.3438 99.1888 65.5977C98.7052 64.8516 98.4594 63.7402 98.4514 62.2637C98.4475 61.6738 98.4871 61.1094 98.5704 60.5703C98.6536 60.0273 98.7726 59.5215 98.9272 59.0527C99.0858 58.584 99.2761 58.1582 99.4981 57.7754C99.724 57.3887 99.9778 57.0605 100.259 56.791C100.545 56.5176 100.854 56.3066 101.187 56.1582C101.52 56.0059 101.875 55.9297 102.251 55.9297C102.723 55.9297 103.132 56.0254 103.476 56.2168C103.825 56.4043 104.113 56.6777 104.339 57.0371C104.565 57.3926 104.731 57.8301 104.838 58.3496C104.949 58.8691 105.005 59.4609 105.005 60.125C105.001 60.7969 104.955 61.373 104.868 61.8535C104.785 62.3301 104.666 62.7207 104.511 63.0254C104.357 63.3301 104.168 63.5547 103.946 63.6992C103.728 63.8398 103.484 63.9102 103.215 63.9102C102.906 63.9102 102.676 63.832 102.525 63.6758C102.374 63.5195 102.299 63.3086 102.299 63.043C102.148 63.3438 101.986 63.5645 101.811 63.7051C101.637 63.8418 101.427 63.9102 101.181 63.9102C100.808 63.9102 100.529 63.7734 100.342 63.5C100.156 63.2227 100.063 62.7871 100.063 62.1934C100.063 61.9785 100.075 61.748 100.099 61.502C100.126 61.2559 100.17 61.0098 100.23 60.7637C100.293 60.5137 100.374 60.2754 100.473 60.0488C100.572 59.8184 100.693 59.6172 100.836 59.4453C100.983 59.2695 101.155 59.1289 101.353 59.0234C101.552 58.918 101.778 58.8652 102.031 58.8652C102.182 58.8652 102.323 58.8828 102.454 58.918C102.584 58.9531 102.68 58.9883 102.739 59.0234L103.506 58.8418L103.03 61.8887ZM102.424 59.8027C102.388 59.7559 102.333 59.7148 102.257 59.6797C102.186 59.6406 102.095 59.6211 101.984 59.6211C101.865 59.6211 101.758 59.6621 101.663 59.7441C101.568 59.8262 101.482 59.9355 101.407 60.0723C101.336 60.209 101.274 60.3652 101.223 60.541C101.175 60.7129 101.133 60.8906 101.098 61.0742C101.066 61.2578 101.042 61.4395 101.026 61.6191C101.014 61.7949 101.009 61.9531 101.009 62.0938C101.009 62.4688 101.032 62.7383 101.08 62.9023C101.127 63.0664 101.219 63.1484 101.353 63.1484C101.401 63.1484 101.449 63.1387 101.496 63.1191C101.544 63.0996 101.593 63.0625 101.645 63.0078C101.7 62.9492 101.76 62.8691 101.823 62.7676C101.887 62.666 101.956 62.5332 102.031 62.3691L102.424 59.8027Z" fill="black"/>
<path d="M69.5504 61.8887C69.5148 62.1387 69.4949 62.3457 69.491 62.5098C69.487 62.6738 69.4969 62.8027 69.5207 62.8965C69.5485 62.9902 69.5901 63.0566 69.6456 63.0957C69.7011 63.1309 69.7705 63.1484 69.8537 63.1484C69.9647 63.1484 70.0698 63.0918 70.1689 62.9785C70.268 62.8613 70.3552 62.6836 70.4305 62.4453C70.5098 62.2031 70.5713 61.8984 70.6149 61.5312C70.6625 61.1641 70.6863 60.7285 70.6863 60.2246C70.6863 59.6621 70.6506 59.1602 70.5792 58.7188C70.5079 58.2773 70.3949 57.9023 70.2403 57.5938C70.0856 57.2852 69.8835 57.0508 69.6337 56.8906C69.3879 56.7266 69.0886 56.6445 68.7357 56.6445C68.4661 56.6445 68.2045 56.7129 67.9508 56.8496C67.701 56.9824 67.4671 57.1719 67.2491 57.418C67.035 57.6602 66.8387 57.9531 66.6603 58.2969C66.4859 58.6367 66.3352 59.0137 66.2084 59.4277C66.0855 59.8418 65.9884 60.2871 65.917 60.7637C65.8496 61.2402 65.8159 61.7363 65.8159 62.252C65.8159 63.5098 66.0082 64.4473 66.3927 65.0645C66.7773 65.6855 67.3184 65.9961 68.0162 65.9961C68.369 65.9961 68.6981 65.9551 69.0033 65.873C69.3086 65.7949 69.6258 65.6758 69.9548 65.5156V66.2715C69.6297 66.4199 69.3046 66.5312 68.9795 66.6055C68.6545 66.6797 68.3135 66.7168 67.9567 66.7168C66.9458 66.7168 66.1965 66.3438 65.7089 65.5977C65.2252 64.8516 64.9794 63.7402 64.9715 62.2637C64.9675 61.6738 65.0071 61.1094 65.0904 60.5703C65.1737 60.0273 65.2926 59.5215 65.4472 59.0527C65.6058 58.584 65.7961 58.1582 66.0181 57.7754C66.2441 57.3887 66.4978 57.0605 66.7793 56.791C67.0647 56.5176 67.3739 56.3066 67.707 56.1582C68.04 56.0059 68.3948 55.9297 68.7714 55.9297C69.2432 55.9297 69.6515 56.0254 69.9964 56.2168C70.3453 56.4043 70.6327 56.6777 70.8587 57.0371C71.0847 57.3926 71.2512 57.8301 71.3582 58.3496C71.4692 58.8691 71.5247 59.4609 71.5247 60.125C71.5208 60.7969 71.4752 61.373 71.388 61.8535C71.3047 62.3301 71.1858 62.7207 71.0312 63.0254C70.8766 63.3301 70.6882 63.5547 70.4662 63.6992C70.2482 63.8398 70.0044 63.9102 69.7348 63.9102C69.4256 63.9102 69.1956 63.832 69.045 63.6758C68.8943 63.5195 68.819 63.3086 68.819 63.043C68.6683 63.3438 68.5058 63.5645 68.3314 63.7051C68.1569 63.8418 67.9468 63.9102 67.701 63.9102C67.3283 63.9102 67.0488 63.7734 66.8625 63.5C66.6762 63.2227 66.583 62.7871 66.583 62.1934C66.583 61.9785 66.5949 61.748 66.6187 61.502C66.6465 61.2559 66.6901 61.0098 66.7495 60.7637C66.813 60.5137 66.8942 60.2754 66.9933 60.0488C67.0925 59.8184 67.2134 59.6172 67.3561 59.4453C67.5028 59.2695 67.6752 59.1289 67.8735 59.0234C68.0717 58.918 68.2977 58.8652 68.5514 58.8652C68.702 58.8652 68.8428 58.8828 68.9736 58.918C69.1044 58.9531 69.1996 58.9883 69.259 59.0234L70.0262 58.8418L69.5504 61.8887ZM68.9439 59.8027C68.9082 59.7559 68.8527 59.7148 68.7774 59.6797C68.706 59.6406 68.6148 59.6211 68.5038 59.6211C68.3849 59.6211 68.2778 59.6621 68.1827 59.7441C68.0875 59.8262 68.0023 59.9355 67.927 60.0723C67.8556 60.209 67.7942 60.3652 67.7426 60.541C67.6951 60.7129 67.6534 60.8906 67.6178 61.0742C67.586 61.2578 67.5622 61.4395 67.5464 61.6191C67.5345 61.7949 67.5286 61.9531 67.5286 62.0938C67.5286 62.4688 67.5523 62.7383 67.5999 62.9023C67.6475 63.0664 67.7387 63.1484 67.8735 63.1484C67.921 63.1484 67.9686 63.1387 68.0162 63.1191C68.0638 63.0996 68.1133 63.0625 68.1648 63.0078C68.2204 62.9492 68.2798 62.8691 68.3433 62.7676C68.4067 62.666 68.4761 62.5332 68.5514 62.3691L68.9439 59.8027Z" fill="black"/>
<path d="M107.259 41.5547C109.086 43.2227 110 45.0781 110 47.1211C110 47.543 109.956 47.9805 109.869 48.4336C109.782 48.8867 109.633 49.3516 109.423 49.8281C109.213 50.3008 108.93 50.7812 108.573 51.2695C108.22 51.7578 107.774 52.248 107.235 52.7402L106.634 52.1367C107.407 51.3828 107.984 50.5957 108.365 49.7754C108.745 48.9551 108.936 48.0957 108.936 47.1973C108.936 45.3379 108.168 43.666 106.634 42.1816L107.259 41.5547Z" fill="black"/>
<path d="M97.7498 47.6133C97.7498 48.0352 97.6884 48.418 97.5655 48.7617C97.4465 49.1016 97.2701 49.3926 97.0362 49.6348C96.8023 49.873 96.5149 50.0586 96.1739 50.1914C95.8369 50.3203 95.4484 50.3848 95.0084 50.3848C94.5247 50.3848 94.1144 50.3223 93.7774 50.1973C93.4404 50.0723 93.1649 49.8965 92.9508 49.6699C92.7407 49.4395 92.5861 49.1641 92.487 48.8438C92.3918 48.5234 92.3442 48.166 92.3442 47.7715V42.6211H93.4028V47.6895C93.4028 47.9902 93.4305 48.2539 93.486 48.4805C93.5455 48.707 93.6406 48.8965 93.7715 49.0488C93.9023 49.2012 94.0708 49.3164 94.2769 49.3945C94.487 49.4727 94.7427 49.5117 95.044 49.5117C95.607 49.5117 96.0213 49.3516 96.2869 49.0312C96.5565 48.7109 96.6913 48.2598 96.6913 47.6777V42.6211H97.7498V47.6133Z" fill="black"/>
<path d="M77.6618 47.6133C77.6618 48.0352 77.6003 48.418 77.4774 48.7617C77.3585 49.1016 77.1821 49.3926 76.9482 49.6348C76.7143 49.873 76.4269 50.0586 76.0859 50.1914C75.7489 50.3203 75.3604 50.3848 74.9204 50.3848C74.4367 50.3848 74.0264 50.3223 73.6894 50.1973C73.3524 50.0723 73.0769 49.8965 72.8628 49.6699C72.6527 49.4395 72.4981 49.1641 72.3989 48.8438C72.3038 48.5234 72.2562 48.166 72.2562 47.7715V42.6211H73.3147V47.6895C73.3147 47.9902 73.3425 48.2539 73.398 48.4805C73.4575 48.707 73.5526 48.8965 73.6834 49.0488C73.8143 49.2012 73.9828 49.3164 74.1889 49.3945C74.399 49.4727 74.6547 49.5117 74.956 49.5117C75.519 49.5117 75.9333 49.3516 76.1989 49.0312C76.4685 48.7109 76.6033 48.2598 76.6033 47.6777V42.6211H77.6618V47.6133Z" fill="black"/>
<path d="M62.7414 52.7402C60.9138 51.0723 60 49.2285 60 47.209C60 46.7363 60.0476 46.2656 60.1427 45.7969C60.2418 45.3242 60.3984 44.8516 60.6125 44.3789C60.8306 43.9062 61.116 43.4336 61.4688 42.9609C61.8256 42.4883 62.2578 42.0195 62.7652 41.5547L63.3658 42.1582C61.8276 43.6543 61.0585 45.3125 61.0585 47.1328C61.0585 48.0391 61.2528 48.9102 61.6413 49.7461C62.0298 50.582 62.6047 51.3711 63.3658 52.1133L62.7414 52.7402Z" fill="black"/>
<path d="M103.851 35.7285L103.203 36.373L99.2067 33.0859L103.203 29.7988L103.851 30.4492L100.61 33.0742L103.851 35.7285Z" fill="black"/>
<path d="M66.1549 30.4492L66.7972 29.7988L70.7933 33.0859L66.7972 36.373L66.1549 35.7285L69.3959 33.0977L66.1549 30.4492Z" fill="black"/>
<path d="M104.785 13.5547C106.612 15.2227 107.526 17.0781 107.526 19.1211C107.526 19.543 107.483 19.9805 107.395 20.4336C107.308 20.8867 107.159 21.3516 106.949 21.8281C106.739 22.3008 106.456 22.7812 106.099 23.2695C105.746 23.7578 105.3 24.248 104.761 24.7402L104.16 24.1367C104.933 23.3828 105.51 22.5957 105.891 21.7754C106.271 20.9551 106.462 20.0957 106.462 19.1973C106.462 17.3379 105.695 15.666 104.16 14.1816L104.785 13.5547Z" fill="black"/>
<path d="M94.6813 21.7285L94.0331 22.373L90.0369 19.0859L94.0331 15.7988L94.6813 16.4492L91.4403 19.0742L94.6813 21.7285Z" fill="black"/>
<path d="M84.221 19.7773C84.221 20.3633 84.3677 20.7969 84.6611 21.0781C84.9544 21.3594 85.341 21.5 85.8207 21.5C86.3004 21.5 86.6849 21.3594 86.9744 21.0781C87.2638 20.7969 87.4085 20.3633 87.4085 19.7773V18.7812H88.3302V19.9004C88.3302 20.6895 88.1042 21.2832 87.6523 21.6816C87.2043 22.0801 86.5938 22.2793 85.8207 22.2793C84.8454 22.2793 84.1556 21.9883 83.7512 21.4062C83.3231 21.9883 82.6432 22.2793 81.7115 22.2793C80.9345 22.2793 80.32 22.0859 79.868 21.6992C79.42 21.3086 79.196 20.7598 79.196 20.0527V18.7812H80.1118V19.7773C80.1118 20.3633 80.2585 20.7969 80.5519 21.0781C80.8453 21.3594 81.2318 21.5 81.7115 21.5C82.1912 21.5 82.5758 21.3594 82.8652 21.0781C83.1546 20.7969 83.2993 20.3633 83.2993 19.7773V18.7812H84.221V19.7773Z" fill="black"/>
<path d="M72.8508 16.4492L73.4931 15.7988L77.4893 19.0859L73.4931 22.373L72.8508 21.7285L76.0918 19.0977L72.8508 16.4492Z" fill="black"/>
<path d="M62.7414 24.7402C60.9138 23.0723 60 21.2285 60 19.209C60 18.7363 60.0476 18.2656 60.1427 17.7969C60.2418 17.3242 60.3984 16.8516 60.6125 16.3789C60.8306 15.9062 61.116 15.4336 61.4688 14.9609C61.8256 14.4883 62.2578 14.0195 62.7652 13.5547L63.3658 14.1582C61.8276 15.6543 61.0585 17.3125 61.0585 19.1328C61.0585 20.0391 61.2528 20.9102 61.6413 21.7461C62.0298 22.582 62.6047 23.3711 63.3658 24.1133L62.7414 24.7402Z" fill="black"/>
<path d="M104.41 9.53906H103.423L99.3435 0H100.331L104.41 9.53906Z" fill="black"/>
<path d="M97.4465 0L93.367 9.53906H92.3799L96.4593 0H97.4465Z" fill="black"/>
<path d="M91.696 10.6816H85V9.83789H91.696V10.6816Z" fill="black"/>
<path d="M85 10.6816H78.304V9.83789H85V10.6816Z" fill="black"/>
<path d="M77.6261 9.53906H76.6389L72.5594 0H73.5466L77.6261 9.53906Z" fill="black"/>
<path d="M70.6624 0L66.583 9.53906H65.5958L69.6753 0H70.6624Z" fill="black"/>
<path d="M163.03 61.8887C162.995 62.1387 162.975 62.3457 162.971 62.5098C162.967 62.6738 162.977 62.8027 163.001 62.8965C163.028 62.9902 163.07 63.0566 163.126 63.0957C163.181 63.1309 163.25 63.1484 163.334 63.1484C163.445 63.1484 163.55 63.0918 163.649 62.9785C163.748 62.8613 163.835 62.6836 163.911 62.4453C163.99 62.2031 164.051 61.8984 164.095 61.5312C164.142 61.1641 164.166 60.7285 164.166 60.2246C164.166 59.6621 164.131 59.1602 164.059 58.7188C163.988 58.2773 163.875 57.9023 163.72 57.5938C163.566 57.2852 163.363 57.0508 163.114 56.8906C162.868 56.7266 162.569 56.6445 162.216 56.6445C161.946 56.6445 161.684 56.7129 161.431 56.8496C161.181 56.9824 160.947 57.1719 160.729 57.418C160.515 57.6602 160.319 57.9531 160.14 58.2969C159.966 58.6367 159.815 59.0137 159.688 59.4277C159.565 59.8418 159.468 60.2871 159.397 60.7637C159.33 61.2402 159.296 61.7363 159.296 62.252C159.296 63.5098 159.488 64.4473 159.873 65.0645C160.257 65.6855 160.798 65.9961 161.496 65.9961C161.849 65.9961 162.178 65.9551 162.483 65.873C162.789 65.7949 163.106 65.6758 163.435 65.5156V66.2715C163.11 66.4199 162.785 66.5312 162.46 66.6055C162.134 66.6797 161.793 66.7168 161.437 66.7168C160.426 66.7168 159.676 66.3438 159.189 65.5977C158.705 64.8516 158.459 63.7402 158.451 62.2637C158.447 61.6738 158.487 61.1094 158.57 60.5703C158.654 60.0273 158.773 59.5215 158.927 59.0527C159.086 58.584 159.276 58.1582 159.498 57.7754C159.724 57.3887 159.978 57.0605 160.259 56.791C160.545 56.5176 160.854 56.3066 161.187 56.1582C161.52 56.0059 161.875 55.9297 162.251 55.9297C162.723 55.9297 163.132 56.0254 163.476 56.2168C163.825 56.4043 164.113 56.6777 164.339 57.0371C164.565 57.3926 164.731 57.8301 164.838 58.3496C164.949 58.8691 165.005 59.4609 165.005 60.125C165.001 60.7969 164.955 61.373 164.868 61.8535C164.785 62.3301 164.666 62.7207 164.511 63.0254C164.357 63.3301 164.168 63.5547 163.946 63.6992C163.728 63.8398 163.484 63.9102 163.215 63.9102C162.906 63.9102 162.676 63.832 162.525 63.6758C162.374 63.5195 162.299 63.3086 162.299 63.043C162.148 63.3438 161.986 63.5645 161.811 63.7051C161.637 63.8418 161.427 63.9102 161.181 63.9102C160.808 63.9102 160.529 63.7734 160.342 63.5C160.156 63.2227 160.063 62.7871 160.063 62.1934C160.063 61.9785 160.075 61.748 160.099 61.502C160.126 61.2559 160.17 61.0098 160.23 60.7637C160.293 60.5137 160.374 60.2754 160.473 60.0488C160.572 59.8184 160.693 59.6172 160.836 59.4453C160.983 59.2695 161.155 59.1289 161.353 59.0234C161.552 58.918 161.778 58.8652 162.031 58.8652C162.182 58.8652 162.323 58.8828 162.454 58.918C162.584 58.9531 162.68 58.9883 162.739 59.0234L163.506 58.8418L163.03 61.8887ZM162.424 59.8027C162.388 59.7559 162.333 59.7148 162.257 59.6797C162.186 59.6406 162.095 59.6211 161.984 59.6211C161.865 59.6211 161.758 59.6621 161.663 59.7441C161.568 59.8262 161.482 59.9355 161.407 60.0723C161.336 60.209 161.274 60.3652 161.223 60.541C161.175 60.7129 161.133 60.8906 161.098 61.0742C161.066 61.2578 161.042 61.4395 161.026 61.6191C161.014 61.7949 161.009 61.9531 161.009 62.0938C161.009 62.4688 161.032 62.7383 161.08 62.9023C161.127 63.0664 161.219 63.1484 161.353 63.1484C161.401 63.1484 161.449 63.1387 161.496 63.1191C161.544 63.0996 161.593 63.0625 161.645 63.0078C161.7 62.9492 161.76 62.8691 161.823 62.7676C161.887 62.666 161.956 62.5332 162.031 62.3691L162.424 59.8027Z" fill="black"/>
<path d="M129.55 61.8887C129.515 62.1387 129.495 62.3457 129.491 62.5098C129.487 62.6738 129.497 62.8027 129.521 62.8965C129.548 62.9902 129.59 63.0566 129.646 63.0957C129.701 63.1309 129.77 63.1484 129.854 63.1484C129.965 63.1484 130.07 63.0918 130.169 62.9785C130.268 62.8613 130.355 62.6836 130.431 62.4453C130.51 62.2031 130.571 61.8984 130.615 61.5312C130.662 61.1641 130.686 60.7285 130.686 60.2246C130.686 59.6621 130.651 59.1602 130.579 58.7188C130.508 58.2773 130.395 57.9023 130.24 57.5938C130.086 57.2852 129.883 57.0508 129.634 56.8906C129.388 56.7266 129.089 56.6445 128.736 56.6445C128.466 56.6445 128.204 56.7129 127.951 56.8496C127.701 56.9824 127.467 57.1719 127.249 57.418C127.035 57.6602 126.839 57.9531 126.66 58.2969C126.486 58.6367 126.335 59.0137 126.208 59.4277C126.085 59.8418 125.988 60.2871 125.917 60.7637C125.85 61.2402 125.816 61.7363 125.816 62.252C125.816 63.5098 126.008 64.4473 126.393 65.0645C126.777 65.6855 127.318 65.9961 128.016 65.9961C128.369 65.9961 128.698 65.9551 129.003 65.873C129.309 65.7949 129.626 65.6758 129.955 65.5156V66.2715C129.63 66.4199 129.305 66.5312 128.98 66.6055C128.654 66.6797 128.314 66.7168 127.957 66.7168C126.946 66.7168 126.196 66.3438 125.709 65.5977C125.225 64.8516 124.979 63.7402 124.971 62.2637C124.967 61.6738 125.007 61.1094 125.09 60.5703C125.174 60.0273 125.293 59.5215 125.447 59.0527C125.606 58.584 125.796 58.1582 126.018 57.7754C126.244 57.3887 126.498 57.0605 126.779 56.791C127.065 56.5176 127.374 56.3066 127.707 56.1582C128.04 56.0059 128.395 55.9297 128.771 55.9297C129.243 55.9297 129.652 56.0254 129.996 56.2168C130.345 56.4043 130.633 56.6777 130.859 57.0371C131.085 57.3926 131.251 57.8301 131.358 58.3496C131.469 58.8691 131.525 59.4609 131.525 60.125C131.521 60.7969 131.475 61.373 131.388 61.8535C131.305 62.3301 131.186 62.7207 131.031 63.0254C130.877 63.3301 130.688 63.5547 130.466 63.6992C130.248 63.8398 130.004 63.9102 129.735 63.9102C129.426 63.9102 129.196 63.832 129.045 63.6758C128.894 63.5195 128.819 63.3086 128.819 63.043C128.668 63.3438 128.506 63.5645 128.331 63.7051C128.157 63.8418 127.947 63.9102 127.701 63.9102C127.328 63.9102 127.049 63.7734 126.863 63.5C126.676 63.2227 126.583 62.7871 126.583 62.1934C126.583 61.9785 126.595 61.748 126.619 61.502C126.646 61.2559 126.69 61.0098 126.75 60.7637C126.813 60.5137 126.894 60.2754 126.993 60.0488C127.092 59.8184 127.213 59.6172 127.356 59.4453C127.503 59.2695 127.675 59.1289 127.873 59.0234C128.072 58.918 128.298 58.8652 128.551 58.8652C128.702 58.8652 128.843 58.8828 128.974 58.918C129.104 58.9531 129.2 58.9883 129.259 59.0234L130.026 58.8418L129.55 61.8887ZM128.944 59.8027C128.908 59.7559 128.853 59.7148 128.777 59.6797C128.706 59.6406 128.615 59.6211 128.504 59.6211C128.385 59.6211 128.278 59.6621 128.183 59.7441C128.088 59.8262 128.002 59.9355 127.927 60.0723C127.856 60.209 127.794 60.3652 127.743 60.541C127.695 60.7129 127.653 60.8906 127.618 61.0742C127.586 61.2578 127.562 61.4395 127.546 61.6191C127.534 61.7949 127.529 61.9531 127.529 62.0938C127.529 62.4688 127.552 62.7383 127.6 62.9023C127.647 63.0664 127.739 63.1484 127.873 63.1484C127.921 63.1484 127.969 63.1387 128.016 63.1191C128.064 63.0996 128.113 63.0625 128.165 63.0078C128.22 62.9492 128.28 62.8691 128.343 62.7676C128.407 62.666 128.476 62.5332 128.551 62.3691L128.944 59.8027Z" fill="black"/>
<path d="M167.259 41.5547C169.086 43.2227 170 45.0781 170 47.1211C170 47.543 169.956 47.9805 169.869 48.4336C169.782 48.8867 169.633 49.3516 169.423 49.8281C169.213 50.3008 168.93 50.7812 168.573 51.2695C168.22 51.7578 167.774 52.248 167.235 52.7402L166.634 52.1367C167.407 51.3828 167.984 50.5957 168.365 49.7754C168.745 48.9551 168.936 48.0957 168.936 47.1973C168.936 45.3379 168.168 43.666 166.634 42.1816L167.259 41.5547Z" fill="black"/>
<path d="M157.75 47.6133C157.75 48.0352 157.688 48.418 157.565 48.7617C157.447 49.1016 157.27 49.3926 157.036 49.6348C156.802 49.873 156.515 50.0586 156.174 50.1914C155.837 50.3203 155.448 50.3848 155.008 50.3848C154.525 50.3848 154.114 50.3223 153.777 50.1973C153.44 50.0723 153.165 49.8965 152.951 49.6699C152.741 49.4395 152.586 49.1641 152.487 48.8438C152.392 48.5234 152.344 48.166 152.344 47.7715V42.6211H153.403V47.6895C153.403 47.9902 153.431 48.2539 153.486 48.4805C153.545 48.707 153.641 48.8965 153.771 49.0488C153.902 49.2012 154.071 49.3164 154.277 49.3945C154.487 49.4727 154.743 49.5117 155.044 49.5117C155.607 49.5117 156.021 49.3516 156.287 49.0312C156.556 48.7109 156.691 48.2598 156.691 47.6777V42.6211H157.75V47.6133Z" fill="black"/>
<path d="M137.662 47.6133C137.662 48.0352 137.6 48.418 137.477 48.7617C137.359 49.1016 137.182 49.3926 136.948 49.6348C136.714 49.873 136.427 50.0586 136.086 50.1914C135.749 50.3203 135.36 50.3848 134.92 50.3848C134.437 50.3848 134.026 50.3223 133.689 50.1973C133.352 50.0723 133.077 49.8965 132.863 49.6699C132.653 49.4395 132.498 49.1641 132.399 48.8438C132.304 48.5234 132.256 48.166 132.256 47.7715V42.6211H133.315V47.6895C133.315 47.9902 133.342 48.2539 133.398 48.4805C133.457 48.707 133.553 48.8965 133.683 49.0488C133.814 49.2012 133.983 49.3164 134.189 49.3945C134.399 49.4727 134.655 49.5117 134.956 49.5117C135.519 49.5117 135.933 49.3516 136.199 49.0312C136.468 48.7109 136.603 48.2598 136.603 47.6777V42.6211H137.662V47.6133Z" fill="black"/>
<path d="M122.741 52.7402C120.914 51.0723 120 49.2285 120 47.209C120 46.7363 120.048 46.2656 120.143 45.7969C120.242 45.3242 120.398 44.8516 120.613 44.3789C120.831 43.9062 121.116 43.4336 121.469 42.9609C121.826 42.4883 122.258 42.0195 122.765 41.5547L123.366 42.1582C121.828 43.6543 121.059 45.3125 121.059 47.1328C121.059 48.0391 121.253 48.9102 121.641 49.7461C122.03 50.582 122.605 51.3711 123.366 52.1133L122.741 52.7402Z" fill="black"/>
<path d="M163.851 35.7285L163.203 36.373L159.207 33.0859L163.203 29.7988L163.851 30.4492L160.61 33.0742L163.851 35.7285Z" fill="black"/>
<path d="M126.155 30.4492L126.797 29.7988L130.793 33.0859L126.797 36.373L126.155 35.7285L129.396 33.0977L126.155 30.4492Z" fill="black"/>
<path d="M164.785 13.5547C166.612 15.2227 167.526 17.0781 167.526 19.1211C167.526 19.543 167.483 19.9805 167.395 20.4336C167.308 20.8867 167.159 21.3516 166.949 21.8281C166.739 22.3008 166.456 22.7812 166.099 23.2695C165.746 23.7578 165.3 24.248 164.761 24.7402L164.16 24.1367C164.933 23.3828 165.51 22.5957 165.891 21.7754C166.271 20.9551 166.462 20.0957 166.462 19.1973C166.462 17.3379 165.695 15.666 164.16 14.1816L164.785 13.5547Z" fill="black"/>
<path d="M159.778 18.3301L158.333 19.748H157.292L158.523 18.3301H159.778ZM162.471 18.3301L160.812 19.748H159.778L161.092 18.3301H162.471Z" fill="black"/>
<path d="M152.57 17.1816C152.82 17.1816 153.054 17.2285 153.272 17.3223C153.494 17.416 153.686 17.5449 153.849 17.709C154.015 17.8691 154.146 18.0586 154.241 18.2773C154.336 18.4922 154.384 18.7227 154.384 18.9688C154.384 19.2148 154.336 19.4473 154.241 19.666C154.146 19.8809 154.015 20.0703 153.849 20.2344C153.686 20.3945 153.494 20.5215 153.272 20.6152C153.054 20.709 152.82 20.7559 152.57 20.7559C152.32 20.7559 152.085 20.709 151.863 20.6152C151.645 20.5215 151.452 20.3945 151.286 20.2344C151.123 20.0703 150.994 19.8809 150.899 19.666C150.804 19.4473 150.756 19.2148 150.756 18.9688C150.756 18.7227 150.804 18.4922 150.899 18.2773C150.994 18.0586 151.123 17.8691 151.286 17.709C151.452 17.5449 151.645 17.416 151.863 17.3223C152.085 17.2285 152.32 17.1816 152.57 17.1816Z" fill="black"/>
<path d="M144.221 19.7773C144.221 20.3633 144.368 20.7969 144.661 21.0781C144.954 21.3594 145.341 21.5 145.821 21.5C146.3 21.5 146.685 21.3594 146.974 21.0781C147.264 20.7969 147.408 20.3633 147.408 19.7773V18.7812H148.33V19.9004C148.33 20.6895 148.104 21.2832 147.652 21.6816C147.204 22.0801 146.594 22.2793 145.821 22.2793C144.845 22.2793 144.156 21.9883 143.751 21.4062C143.323 21.9883 142.643 22.2793 141.712 22.2793C140.934 22.2793 140.32 22.0859 139.868 21.6992C139.42 21.3086 139.196 20.7598 139.196 20.0527V18.7812H140.112V19.7773C140.112 20.3633 140.259 20.7969 140.552 21.0781C140.845 21.3594 141.232 21.5 141.712 21.5C142.191 21.5 142.576 21.3594 142.865 21.0781C143.155 20.7969 143.299 20.3633 143.299 19.7773V18.7812H144.221V19.7773Z" fill="black"/>
<path d="M134.956 17.1816C135.206 17.1816 135.44 17.2285 135.658 17.3223C135.88 17.416 136.072 17.5449 136.235 17.709C136.401 17.8691 136.532 18.0586 136.627 18.2773C136.722 18.4922 136.77 18.7227 136.77 18.9688C136.77 19.2148 136.722 19.4473 136.627 19.666C136.532 19.8809 136.401 20.0703 136.235 20.2344C136.072 20.3945 135.88 20.5215 135.658 20.6152C135.44 20.709 135.206 20.7559 134.956 20.7559C134.706 20.7559 134.47 20.709 134.248 20.6152C134.03 20.5215 133.838 20.3945 133.671 20.2344C133.509 20.0703 133.38 19.8809 133.285 19.666C133.19 19.4473 133.142 19.2148 133.142 18.9688C133.142 18.7227 133.19 18.4922 133.285 18.2773C133.38 18.0586 133.509 17.8691 133.671 17.709C133.838 17.5449 134.03 17.416 134.248 17.3223C134.47 17.2285 134.706 17.1816 134.956 17.1816Z" fill="black"/>
<path d="M128.771 18.3301L127.326 19.748H126.286L127.517 18.3301H128.771ZM131.465 18.3301L129.806 19.748H128.771L130.086 18.3301H131.465Z" fill="black"/>
<path d="M122.741 24.7402C120.914 23.0723 120 21.2285 120 19.209C120 18.7363 120.048 18.2656 120.143 17.7969C120.242 17.3242 120.398 16.8516 120.613 16.3789C120.831 15.9062 121.116 15.4336 121.469 14.9609C121.826 14.4883 122.258 14.0195 122.765 13.5547L123.366 14.1582C121.828 15.6543 121.059 17.3125 121.059 19.1328C121.059 20.0391 121.253 20.9102 121.641 21.7461C122.03 22.582 122.605 23.3711 123.366 24.1133L122.741 24.7402Z" fill="black"/>
<path d="M164.41 9.53906H163.423L159.344 0H160.331L164.41 9.53906Z" fill="black"/>
<path d="M157.446 0L153.367 9.53906H152.38L156.459 0H157.446Z" fill="black"/>
<path d="M151.696 10.6816H145V9.83789H151.696V10.6816Z" fill="black"/>
<path d="M145 10.6816H138.304V9.83789H145V10.6816Z" fill="black"/>
<path d="M137.626 9.53906H136.639L132.559 0H133.547L137.626 9.53906Z" fill="black"/>
<path d="M130.662 0L126.583 9.53906H125.596L129.675 0H130.662Z" fill="black"/>
<path d="M223.03 61.8887C222.995 62.1387 222.975 62.3457 222.971 62.5098C222.967 62.6738 222.977 62.8027 223.001 62.8965C223.028 62.9902 223.07 63.0566 223.126 63.0957C223.181 63.1309 223.25 63.1484 223.334 63.1484C223.445 63.1484 223.55 63.0918 223.649 62.9785C223.748 62.8613 223.835 62.6836 223.911 62.4453C223.99 62.2031 224.051 61.8984 224.095 61.5312C224.142 61.1641 224.166 60.7285 224.166 60.2246C224.166 59.6621 224.131 59.1602 224.059 58.7188C223.988 58.2773 223.875 57.9023 223.72 57.5938C223.566 57.2852 223.363 57.0508 223.114 56.8906C222.868 56.7266 222.569 56.6445 222.216 56.6445C221.946 56.6445 221.684 56.7129 221.431 56.8496C221.181 56.9824 220.947 57.1719 220.729 57.418C220.515 57.6602 220.319 57.9531 220.14 58.2969C219.966 58.6367 219.815 59.0137 219.688 59.4277C219.565 59.8418 219.468 60.2871 219.397 60.7637C219.33 61.2402 219.296 61.7363 219.296 62.252C219.296 63.5098 219.488 64.4473 219.873 65.0645C220.257 65.6855 220.798 65.9961 221.496 65.9961C221.849 65.9961 222.178 65.9551 222.483 65.873C222.789 65.7949 223.106 65.6758 223.435 65.5156V66.2715C223.11 66.4199 222.785 66.5312 222.46 66.6055C222.134 66.6797 221.793 66.7168 221.437 66.7168C220.426 66.7168 219.676 66.3438 219.189 65.5977C218.705 64.8516 218.459 63.7402 218.451 62.2637C218.447 61.6738 218.487 61.1094 218.57 60.5703C218.654 60.0273 218.773 59.5215 218.927 59.0527C219.086 58.584 219.276 58.1582 219.498 57.7754C219.724 57.3887 219.978 57.0605 220.259 56.791C220.545 56.5176 220.854 56.3066 221.187 56.1582C221.52 56.0059 221.875 55.9297 222.251 55.9297C222.723 55.9297 223.132 56.0254 223.476 56.2168C223.825 56.4043 224.113 56.6777 224.339 57.0371C224.565 57.3926 224.731 57.8301 224.838 58.3496C224.949 58.8691 225.005 59.4609 225.005 60.125C225.001 60.7969 224.955 61.373 224.868 61.8535C224.785 62.3301 224.666 62.7207 224.511 63.0254C224.357 63.3301 224.168 63.5547 223.946 63.6992C223.728 63.8398 223.484 63.9102 223.215 63.9102C222.906 63.9102 222.676 63.832 222.525 63.6758C222.374 63.5195 222.299 63.3086 222.299 63.043C222.148 63.3438 221.986 63.5645 221.811 63.7051C221.637 63.8418 221.427 63.9102 221.181 63.9102C220.808 63.9102 220.529 63.7734 220.342 63.5C220.156 63.2227 220.063 62.7871 220.063 62.1934C220.063 61.9785 220.075 61.748 220.099 61.502C220.126 61.2559 220.17 61.0098 220.23 60.7637C220.293 60.5137 220.374 60.2754 220.473 60.0488C220.572 59.8184 220.693 59.6172 220.836 59.4453C220.983 59.2695 221.155 59.1289 221.353 59.0234C221.552 58.918 221.778 58.8652 222.031 58.8652C222.182 58.8652 222.323 58.8828 222.454 58.918C222.584 58.9531 222.68 58.9883 222.739 59.0234L223.506 58.8418L223.03 61.8887ZM222.424 59.8027C222.388 59.7559 222.333 59.7148 222.257 59.6797C222.186 59.6406 222.095 59.6211 221.984 59.6211C221.865 59.6211 221.758 59.6621 221.663 59.7441C221.568 59.8262 221.482 59.9355 221.407 60.0723C221.336 60.209 221.274 60.3652 221.223 60.541C221.175 60.7129 221.133 60.8906 221.098 61.0742C221.066 61.2578 221.042 61.4395 221.026 61.6191C221.014 61.7949 221.009 61.9531 221.009 62.0938C221.009 62.4688 221.032 62.7383 221.08 62.9023C221.127 63.0664 221.219 63.1484 221.353 63.1484C221.401 63.1484 221.449 63.1387 221.496 63.1191C221.544 63.0996 221.593 63.0625 221.645 63.0078C221.7 62.9492 221.76 62.8691 221.823 62.7676C221.887 62.666 221.956 62.5332 222.031 62.3691L222.424 59.8027Z" fill="black"/>
<path d="M189.55 61.8887C189.515 62.1387 189.495 62.3457 189.491 62.5098C189.487 62.6738 189.497 62.8027 189.521 62.8965C189.548 62.9902 189.59 63.0566 189.646 63.0957C189.701 63.1309 189.77 63.1484 189.854 63.1484C189.965 63.1484 190.07 63.0918 190.169 62.9785C190.268 62.8613 190.355 62.6836 190.431 62.4453C190.51 62.2031 190.571 61.8984 190.615 61.5312C190.662 61.1641 190.686 60.7285 190.686 60.2246C190.686 59.6621 190.651 59.1602 190.579 58.7188C190.508 58.2773 190.395 57.9023 190.24 57.5938C190.086 57.2852 189.883 57.0508 189.634 56.8906C189.388 56.7266 189.089 56.6445 188.736 56.6445C188.466 56.6445 188.204 56.7129 187.951 56.8496C187.701 56.9824 187.467 57.1719 187.249 57.418C187.035 57.6602 186.839 57.9531 186.66 58.2969C186.486 58.6367 186.335 59.0137 186.208 59.4277C186.085 59.8418 185.988 60.2871 185.917 60.7637C185.85 61.2402 185.816 61.7363 185.816 62.252C185.816 63.5098 186.008 64.4473 186.393 65.0645C186.777 65.6855 187.318 65.9961 188.016 65.9961C188.369 65.9961 188.698 65.9551 189.003 65.873C189.309 65.7949 189.626 65.6758 189.955 65.5156V66.2715C189.63 66.4199 189.305 66.5312 188.98 66.6055C188.654 66.6797 188.314 66.7168 187.957 66.7168C186.946 66.7168 186.196 66.3438 185.709 65.5977C185.225 64.8516 184.979 63.7402 184.971 62.2637C184.967 61.6738 185.007 61.1094 185.09 60.5703C185.174 60.0273 185.293 59.5215 185.447 59.0527C185.606 58.584 185.796 58.1582 186.018 57.7754C186.244 57.3887 186.498 57.0605 186.779 56.791C187.065 56.5176 187.374 56.3066 187.707 56.1582C188.04 56.0059 188.395 55.9297 188.771 55.9297C189.243 55.9297 189.652 56.0254 189.996 56.2168C190.345 56.4043 190.633 56.6777 190.859 57.0371C191.085 57.3926 191.251 57.8301 191.358 58.3496C191.469 58.8691 191.525 59.4609 191.525 60.125C191.521 60.7969 191.475 61.373 191.388 61.8535C191.305 62.3301 191.186 62.7207 191.031 63.0254C190.877 63.3301 190.688 63.5547 190.466 63.6992C190.248 63.8398 190.004 63.9102 189.735 63.9102C189.426 63.9102 189.196 63.832 189.045 63.6758C188.894 63.5195 188.819 63.3086 188.819 63.043C188.668 63.3438 188.506 63.5645 188.331 63.7051C188.157 63.8418 187.947 63.9102 187.701 63.9102C187.328 63.9102 187.049 63.7734 186.863 63.5C186.676 63.2227 186.583 62.7871 186.583 62.1934C186.583 61.9785 186.595 61.748 186.619 61.502C186.646 61.2559 186.69 61.0098 186.75 60.7637C186.813 60.5137 186.894 60.2754 186.993 60.0488C187.092 59.8184 187.213 59.6172 187.356 59.4453C187.503 59.2695 187.675 59.1289 187.873 59.0234C188.072 58.918 188.298 58.8652 188.551 58.8652C188.702 58.8652 188.843 58.8828 188.974 58.918C189.104 58.9531 189.2 58.9883 189.259 59.0234L190.026 58.8418L189.55 61.8887ZM188.944 59.8027C188.908 59.7559 188.853 59.7148 188.777 59.6797C188.706 59.6406 188.615 59.6211 188.504 59.6211C188.385 59.6211 188.278 59.6621 188.183 59.7441C188.088 59.8262 188.002 59.9355 187.927 60.0723C187.856 60.209 187.794 60.3652 187.743 60.541C187.695 60.7129 187.653 60.8906 187.618 61.0742C187.586 61.2578 187.562 61.4395 187.546 61.6191C187.534 61.7949 187.529 61.9531 187.529 62.0938C187.529 62.4688 187.552 62.7383 187.6 62.9023C187.647 63.0664 187.739 63.1484 187.873 63.1484C187.921 63.1484 187.969 63.1387 188.016 63.1191C188.064 63.0996 188.113 63.0625 188.165 63.0078C188.22 62.9492 188.28 62.8691 188.343 62.7676C188.407 62.666 188.476 62.5332 188.551 62.3691L188.944 59.8027Z" fill="black"/>
<path d="M227.259 41.5547C229.086 43.2227 230 45.0781 230 47.1211C230 47.543 229.956 47.9805 229.869 48.4336C229.782 48.8867 229.633 49.3516 229.423 49.8281C229.213 50.3008 228.93 50.7812 228.573 51.2695C228.22 51.7578 227.774 52.248 227.235 52.7402L226.634 52.1367C227.407 51.3828 227.984 50.5957 228.365 49.7754C228.745 48.9551 228.936 48.0957 228.936 47.1973C228.936 45.3379 228.168 43.666 226.634 42.1816L227.259 41.5547Z" fill="black"/>
<path d="M217.75 47.6133C217.75 48.0352 217.688 48.418 217.565 48.7617C217.447 49.1016 217.27 49.3926 217.036 49.6348C216.802 49.873 216.515 50.0586 216.174 50.1914C215.837 50.3203 215.448 50.3848 215.008 50.3848C214.525 50.3848 214.114 50.3223 213.777 50.1973C213.44 50.0723 213.165 49.8965 212.951 49.6699C212.741 49.4395 212.586 49.1641 212.487 48.8438C212.392 48.5234 212.344 48.166 212.344 47.7715V42.6211H213.403V47.6895C213.403 47.9902 213.431 48.2539 213.486 48.4805C213.545 48.707 213.641 48.8965 213.771 49.0488C213.902 49.2012 214.071 49.3164 214.277 49.3945C214.487 49.4727 214.743 49.5117 215.044 49.5117C215.607 49.5117 216.021 49.3516 216.287 49.0312C216.556 48.7109 216.691 48.2598 216.691 47.6777V42.6211H217.75V47.6133Z" fill="black"/>
<path d="M197.662 47.6133C197.662 48.0352 197.6 48.418 197.477 48.7617C197.359 49.1016 197.182 49.3926 196.948 49.6348C196.714 49.873 196.427 50.0586 196.086 50.1914C195.749 50.3203 195.36 50.3848 194.92 50.3848C194.437 50.3848 194.026 50.3223 193.689 50.1973C193.352 50.0723 193.077 49.8965 192.863 49.6699C192.653 49.4395 192.498 49.1641 192.399 48.8438C192.304 48.5234 192.256 48.166 192.256 47.7715V42.6211H193.315V47.6895C193.315 47.9902 193.342 48.2539 193.398 48.4805C193.457 48.707 193.553 48.8965 193.683 49.0488C193.814 49.2012 193.983 49.3164 194.189 49.3945C194.399 49.4727 194.655 49.5117 194.956 49.5117C195.519 49.5117 195.933 49.3516 196.199 49.0312C196.468 48.7109 196.603 48.2598 196.603 47.6777V42.6211H197.662V47.6133Z" fill="black"/>
<path d="M182.741 52.7402C180.914 51.0723 180 49.2285 180 47.209C180 46.7363 180.048 46.2656 180.143 45.7969C180.242 45.3242 180.398 44.8516 180.613 44.3789C180.831 43.9062 181.116 43.4336 181.469 42.9609C181.826 42.4883 182.258 42.0195 182.765 41.5547L183.366 42.1582C181.828 43.6543 181.059 45.3125 181.059 47.1328C181.059 48.0391 181.253 48.9102 181.641 49.7461C182.03 50.582 182.605 51.3711 183.366 52.1133L182.741 52.7402Z" fill="black"/>
<path d="M223.851 35.7285L223.203 36.373L219.207 33.0859L223.203 29.7988L223.851 30.4492L220.61 33.0742L223.851 35.7285Z" fill="black"/>
<path d="M186.155 30.4492L186.797 29.7988L190.793 33.0859L186.797 36.373L186.155 35.7285L189.396 33.0977L186.155 30.4492Z" fill="black"/>
<path d="M224.785 13.5547C226.612 15.2227 227.526 17.0781 227.526 19.1211C227.526 19.543 227.483 19.9805 227.395 20.4336C227.308 20.8867 227.159 21.3516 226.949 21.8281C226.739 22.3008 226.456 22.7812 226.099 23.2695C225.746 23.7578 225.3 24.248 224.761 24.7402L224.16 24.1367C224.933 23.3828 225.51 22.5957 225.891 21.7754C226.271 20.9551 226.462 20.0957 226.462 19.1973C226.462 17.3379 225.695 15.666 224.16 14.1816L224.785 13.5547Z" fill="black"/>
<path d="M219.778 18.3301L218.333 19.748H217.292L218.523 18.3301H219.778ZM222.471 18.3301L220.812 19.748H219.778L221.092 18.3301H222.471Z" fill="black"/>
<path d="M214.681 21.7285L214.033 22.373L210.037 19.0859L214.033 15.7988L214.681 16.4492L211.44 19.0742L214.681 21.7285Z" fill="black"/>
<path d="M204.221 19.7773C204.221 20.3633 204.368 20.7969 204.661 21.0781C204.954 21.3594 205.341 21.5 205.821 21.5C206.3 21.5 206.685 21.3594 206.974 21.0781C207.264 20.7969 207.408 20.3633 207.408 19.7773V18.7812H208.33V19.9004C208.33 20.6895 208.104 21.2832 207.652 21.6816C207.204 22.0801 206.594 22.2793 205.821 22.2793C204.845 22.2793 204.156 21.9883 203.751 21.4062C203.323 21.9883 202.643 22.2793 201.712 22.2793C200.934 22.2793 200.32 22.0859 199.868 21.6992C199.42 21.3086 199.196 20.7598 199.196 20.0527V18.7812H200.112V19.7773C200.112 20.3633 200.259 20.7969 200.552 21.0781C200.845 21.3594 201.232 21.5 201.712 21.5C202.191 21.5 202.576 21.3594 202.865 21.0781C203.155 20.7969 203.299 20.3633 203.299 19.7773V18.7812H204.221V19.7773Z" fill="black"/>
<path d="M192.851 16.4492L193.493 15.7988L197.489 19.0859L193.493 22.373L192.851 21.7285L196.092 19.0977L192.851 16.4492Z" fill="black"/>
<path d="M188.771 18.3301L187.326 19.748H186.286L187.517 18.3301H188.771ZM191.465 18.3301L189.806 19.748H188.771L190.086 18.3301H191.465Z" fill="black"/>
<path d="M182.741 24.7402C180.914 23.0723 180 21.2285 180 19.209C180 18.7363 180.048 18.2656 180.143 17.7969C180.242 17.3242 180.398 16.8516 180.613 16.3789C180.831 15.9062 181.116 15.4336 181.469 14.9609C181.826 14.4883 182.258 14.0195 182.765 13.5547L183.366 14.1582C181.828 15.6543 181.059 17.3125 181.059 19.1328C181.059 20.0391 181.253 20.9102 181.641 21.7461C182.03 22.582 182.605 23.3711 183.366 24.1133L182.741 24.7402Z" fill="black"/>
<path d="M224.41 9.53906H223.423L219.344 0H220.331L224.41 9.53906Z" fill="black"/>
<path d="M217.446 0L213.367 9.53906H212.38L216.459 0H217.446Z" fill="black"/>
<path d="M211.696 10.6816H205V9.83789H211.696V10.6816Z" fill="black"/>
<path d="M205 10.6816H198.304V9.83789H205V10.6816Z" fill="black"/>
<path d="M197.626 9.53906H196.639L192.559 0H193.547L197.626 9.53906Z" fill="black"/>
<path d="M190.662 0L186.583 9.53906H185.596L189.675 0H190.662Z" fill="black"/>
<path d="M37.7498 127.613C37.7498 128.035 37.6884 128.418 37.5655 128.762C37.4465 129.102 37.2701 129.393 37.0362 129.635C36.8023 129.873 36.5149 130.059 36.1739 130.191C35.8369 130.32 35.4484 130.385 35.0084 130.385C34.5247 130.385 34.1144 130.322 33.7774 130.197C33.4404 130.072 33.1649 129.896 32.9508 129.67C32.7407 129.439 32.5861 129.164 32.487 128.844C32.3918 128.523 32.3442 128.166 32.3442 127.771V122.621H33.4028V127.689C33.4028 127.99 33.4305 128.254 33.486 128.48C33.5455 128.707 33.6406 128.896 33.7715 129.049C33.9023 129.201 34.0708 129.316 34.2769 129.395C34.487 129.473 34.7427 129.512 35.044 129.512C35.607 129.512 36.0213 129.352 36.2869 129.031C36.5565 128.711 36.6913 128.26 36.6913 127.678V122.621H37.7498V127.613Z" fill="black"/>
<path d="M17.6618 127.613C17.6618 128.035 17.6003 128.418 17.4774 128.762C17.3585 129.102 17.1821 129.393 16.9482 129.635C16.7143 129.873 16.4269 130.059 16.0859 130.191C15.7489 130.32 15.3604 130.385 14.9204 130.385C14.4367 130.385 14.0264 130.322 13.6894 130.197C13.3524 130.072 13.0769 129.896 12.8628 129.67C12.6527 129.439 12.4981 129.164 12.3989 128.844C12.3038 128.523 12.2562 128.166 12.2562 127.771V122.621H13.3147V127.689C13.3147 127.99 13.3425 128.254 13.398 128.48C13.4575 128.707 13.5526 128.896 13.6834 129.049C13.8143 129.201 13.9828 129.316 14.1889 129.395C14.399 129.473 14.6547 129.512 14.956 129.512C15.519 129.512 15.9333 129.352 16.1989 129.031C16.4685 128.711 16.6033 128.26 16.6033 127.678V122.621H17.6618V127.613Z" fill="black"/>
<path d="M43.8511 115.729L43.2029 116.373L39.2067 113.086L43.2029 109.799L43.8511 110.449L40.6101 113.074L43.8511 115.729Z" fill="black"/>
<path d="M6.15491 110.449L6.79715 109.799L10.7933 113.086L6.79715 116.373L6.15491 115.729L9.39587 113.098L6.15491 110.449Z" fill="black"/>
<path d="M44.7847 93.5547C46.6123 95.2227 47.5261 97.0781 47.5261 99.1211C47.5261 99.543 47.4825 99.9805 47.3953 100.434C47.3081 100.887 47.1594 101.352 46.9493 101.828C46.7392 102.301 46.4557 102.781 46.0989 103.27C45.7461 103.758 45.3001 104.248 44.7609 104.74L44.1603 104.137C44.9334 103.383 45.5102 102.596 45.8908 101.775C46.2714 100.955 46.4617 100.096 46.4617 99.1973C46.4617 97.3379 45.6945 95.666 44.1603 94.1816L44.7847 93.5547Z" fill="black"/>
<path d="M32.5702 97.1816C32.82 97.1816 33.0539 97.2285 33.2719 97.3223C33.4939 97.416 33.6862 97.5449 33.8488 97.709C34.0153 97.8691 34.1461 98.0586 34.2412 98.2773C34.3364 98.4922 34.384 98.7227 34.384 98.9688C34.384 99.2148 34.3364 99.4473 34.2412 99.666C34.1461 99.8809 34.0153 100.07 33.8488 100.234C33.6862 100.395 33.4939 100.521 33.2719 100.615C33.0539 100.709 32.82 100.756 32.5702 100.756C32.3205 100.756 32.0846 100.709 31.8626 100.615C31.6445 100.521 31.4522 100.395 31.2857 100.234C31.1232 100.07 30.9943 99.8809 30.8992 99.666C30.804 99.4473 30.7565 99.2148 30.7565 98.9688C30.7565 98.7227 30.804 98.4922 30.8992 98.2773C30.9943 98.0586 31.1232 97.8691 31.2857 97.709C31.4522 97.5449 31.6445 97.416 31.8626 97.3223C32.0846 97.2285 32.3205 97.1816 32.5702 97.1816Z" fill="black"/>
<path d="M24.221 99.7773C24.221 100.363 24.3677 100.797 24.6611 101.078C24.9544 101.359 25.341 101.5 25.8207 101.5C26.3004 101.5 26.6849 101.359 26.9744 101.078C27.2638 100.797 27.4085 100.363 27.4085 99.7773V98.7812H28.3302V99.9004C28.3302 100.689 28.1042 101.283 27.6523 101.682C27.2043 102.08 26.5938 102.279 25.8207 102.279C24.8454 102.279 24.1556 101.988 23.7512 101.406C23.3231 101.988 22.6432 102.279 21.7115 102.279C20.9345 102.279 20.32 102.086 19.868 101.699C19.42 101.309 19.196 100.76 19.196 100.053V98.7812H20.1118V99.7773C20.1118 100.363 20.2585 100.797 20.5519 101.078C20.8453 101.359 21.2318 101.5 21.7115 101.5C22.1912 101.5 22.5758 101.359 22.8652 101.078C23.1546 100.797 23.2993 100.363 23.2993 99.7773V98.7812H24.221V99.7773Z" fill="black"/>
<path d="M14.956 97.1816C15.2057 97.1816 15.4396 97.2285 15.6577 97.3223C15.8797 97.416 16.072 97.5449 16.2345 97.709C16.401 97.8691 16.5318 98.0586 16.627 98.2773C16.7221 98.4922 16.7697 98.7227 16.7697 98.9688C16.7697 99.2148 16.7221 99.4473 16.627 99.666C16.5318 99.8809 16.401 100.07 16.2345 100.234C16.072 100.395 15.8797 100.521 15.6577 100.615C15.4396 100.709 15.2057 100.756 14.956 100.756C14.7062 100.756 14.4703 100.709 14.2483 100.615C14.0303 100.521 13.838 100.395 13.6715 100.234C13.5089 100.07 13.3801 99.8809 13.2849 99.666C13.1898 99.4473 13.1422 99.2148 13.1422 98.9688C13.1422 98.7227 13.1898 98.4922 13.2849 98.2773C13.3801 98.0586 13.5089 97.8691 13.6715 97.709C13.838 97.5449 14.0303 97.416 14.2483 97.3223C14.4703 97.2285 14.7062 97.1816 14.956 97.1816Z" fill="black"/>
<path d="M2.74144 104.74C0.913812 103.072 0 101.229 0 99.209C0 98.7363 0.0475737 98.2656 0.142721 97.7969C0.241833 97.3242 0.39843 96.8516 0.612512 96.3789C0.830558 95.9062 1.116 95.4336 1.46884 94.9609C1.82564 94.4883 2.25777 94.0195 2.76522 93.5547L3.36584 94.1582C1.82762 95.6543 1.05852 97.3125 1.05852 99.1328C1.05852 100.039 1.25278 100.91 1.64129 101.746C2.02981 102.582 2.60466 103.371 3.36584 104.113L2.74144 104.74Z" fill="black"/>
<path d="M44.4101 89.5391H43.423L39.3435 80H40.3307L44.4101 89.5391Z" fill="black"/>
<path d="M37.4465 80L33.367 89.5391H32.3799L36.4593 80H37.4465Z" fill="black"/>
<path d="M31.696 90.6816H25V89.8379H31.696V90.6816Z" fill="black"/>
<path d="M25 90.6816H18.304V89.8379H25V90.6816Z" fill="black"/>
<path d="M17.6261 89.5391H16.6389L12.5594 80H13.5466L17.6261 89.5391Z" fill="black"/>
<path d="M10.6624 80L6.58298 89.5391H5.59583L9.67527 80H10.6624Z" fill="black"/>
<path d="M97.7498 127.613C97.7498 128.035 97.6884 128.418 97.5655 128.762C97.4465 129.102 97.2701 129.393 97.0362 129.635C96.8023 129.873 96.5149 130.059 96.1739 130.191C95.8369 130.32 95.4484 130.385 95.0084 130.385C94.5247 130.385 94.1144 130.322 93.7774 130.197C93.4404 130.072 93.1649 129.896 92.9508 129.67C92.7407 129.439 92.5861 129.164 92.487 128.844C92.3918 128.523 92.3442 128.166 92.3442 127.771V122.621H93.4028V127.689C93.4028 127.99 93.4305 128.254 93.486 128.48C93.5455 128.707 93.6406 128.896 93.7715 129.049C93.9023 129.201 94.0708 129.316 94.2769 129.395C94.487 129.473 94.7427 129.512 95.044 129.512C95.607 129.512 96.0213 129.352 96.2869 129.031C96.5565 128.711 96.6913 128.26 96.6913 127.678V122.621H97.7498V127.613Z" fill="black"/>
<path d="M77.6618 127.613C77.6618 128.035 77.6003 128.418 77.4774 128.762C77.3585 129.102 77.1821 129.393 76.9482 129.635C76.7143 129.873 76.4269 130.059 76.0859 130.191C75.7489 130.32 75.3604 130.385 74.9204 130.385C74.4367 130.385 74.0264 130.322 73.6894 130.197C73.3524 130.072 73.0769 129.896 72.8628 129.67C72.6527 129.439 72.4981 129.164 72.3989 128.844C72.3038 128.523 72.2562 128.166 72.2562 127.771V122.621H73.3147V127.689C73.3147 127.99 73.3425 128.254 73.398 128.48C73.4575 128.707 73.5526 128.896 73.6834 129.049C73.8143 129.201 73.9828 129.316 74.1889 129.395C74.399 129.473 74.6547 129.512 74.956 129.512C75.519 129.512 75.9333 129.352 76.1989 129.031C76.4685 128.711 76.6033 128.26 76.6033 127.678V122.621H77.6618V127.613Z" fill="black"/>
<path d="M103.851 115.729L103.203 116.373L99.2067 113.086L103.203 109.799L103.851 110.449L100.61 113.074L103.851 115.729Z" fill="black"/>
<path d="M66.1549 110.449L66.7972 109.799L70.7933 113.086L66.7972 116.373L66.1549 115.729L69.3959 113.098L66.1549 110.449Z" fill="black"/>
<path d="M104.785 93.5547C106.612 95.2227 107.526 97.0781 107.526 99.1211C107.526 99.543 107.483 99.9805 107.395 100.434C107.308 100.887 107.159 101.352 106.949 101.828C106.739 102.301 106.456 102.781 106.099 103.27C105.746 103.758 105.3 104.248 104.761 104.74L104.16 104.137C104.933 103.383 105.51 102.596 105.891 101.775C106.271 100.955 106.462 100.096 106.462 99.1973C106.462 97.3379 105.695 95.666 104.16 94.1816L104.785 93.5547Z" fill="black"/>
<path d="M94.6813 101.729L94.0331 102.373L90.0369 99.0859L94.0331 95.7988L94.6813 96.4492L91.4403 99.0742L94.6813 101.729Z" fill="black"/>
<path d="M84.221 99.7773C84.221 100.363 84.3677 100.797 84.6611 101.078C84.9544 101.359 85.341 101.5 85.8207 101.5C86.3004 101.5 86.6849 101.359 86.9744 101.078C87.2638 100.797 87.4085 100.363 87.4085 99.7773V98.7812H88.3302V99.9004C88.3302 100.689 88.1042 101.283 87.6523 101.682C87.2043 102.08 86.5938 102.279 85.8207 102.279C84.8454 102.279 84.1556 101.988 83.7512 101.406C83.3231 101.988 82.6432 102.279 81.7115 102.279C80.9345 102.279 80.32 102.086 79.868 101.699C79.42 101.309 79.196 100.76 79.196 100.053V98.7812H80.1118V99.7773C80.1118 100.363 80.2585 100.797 80.5519 101.078C80.8453 101.359 81.2318 101.5 81.7115 101.5C82.1912 101.5 82.5758 101.359 82.8652 101.078C83.1546 100.797 83.2993 100.363 83.2993 99.7773V98.7812H84.221V99.7773Z" fill="black"/>
<path d="M72.8508 96.4492L73.4931 95.7988L77.4893 99.0859L73.4931 102.373L72.8508 101.729L76.0918 99.0977L72.8508 96.4492Z" fill="black"/>
<path d="M62.7414 104.74C60.9138 103.072 60 101.229 60 99.209C60 98.7363 60.0476 98.2656 60.1427 97.7969C60.2418 97.3242 60.3984 96.8516 60.6125 96.3789C60.8306 95.9062 61.116 95.4336 61.4688 94.9609C61.8256 94.4883 62.2578 94.0195 62.7652 93.5547L63.3658 94.1582C61.8276 95.6543 61.0585 97.3125 61.0585 99.1328C61.0585 100.039 61.2528 100.91 61.6413 101.746C62.0298 102.582 62.6047 103.371 63.3658 104.113L62.7414 104.74Z" fill="black"/>
<path d="M104.41 89.5391H103.423L99.3435 80H100.331L104.41 89.5391Z" fill="black"/>
<path d="M97.4465 80L93.367 89.5391H92.3799L96.4593 80H97.4465Z" fill="black"/>
<path d="M91.696 90.6816H85V89.8379H91.696V90.6816Z" fill="black"/>
<path d="M85 90.6816H78.304V89.8379H85V90.6816Z" fill="black"/>
<path d="M77.6261 89.5391H76.6389L72.5594 80H73.5466L77.6261 89.5391Z" fill="black"/>
<path d="M70.6624 80L66.583 89.5391H65.5958L69.6753 80H70.6624Z" fill="black"/>
<path d="M157.75 127.613C157.75 128.035 157.688 128.418 157.565 128.762C157.447 129.102 157.27 129.393 157.036 129.635C156.802 129.873 156.515 130.059 156.174 130.191C155.837 130.32 155.448 130.385 155.008 130.385C154.525 130.385 154.114 130.322 153.777 130.197C153.44 130.072 153.165 129.896 152.951 129.67C152.741 129.439 152.586 129.164 152.487 128.844C152.392 128.523 152.344 128.166 152.344 127.771V122.621H153.403V127.689C153.403 127.99 153.431 128.254 153.486 128.48C153.545 128.707 153.641 128.896 153.771 129.049C153.902 129.201 154.071 129.316 154.277 129.395C154.487 129.473 154.743 129.512 155.044 129.512C155.607 129.512 156.021 129.352 156.287 129.031C156.556 128.711 156.691 128.26 156.691 127.678V122.621H157.75V127.613Z" fill="black"/>
<path d="M137.662 127.613C137.662 128.035 137.6 128.418 137.477 128.762C137.359 129.102 137.182 129.393 136.948 129.635C136.714 129.873 136.427 130.059 136.086 130.191C135.749 130.32 135.36 130.385 134.92 130.385C134.437 130.385 134.026 130.322 133.689 130.197C133.352 130.072 133.077 129.896 132.863 129.67C132.653 129.439 132.498 129.164 132.399 128.844C132.304 128.523 132.256 128.166 132.256 127.771V122.621H133.315V127.689C133.315 127.99 133.342 128.254 133.398 128.48C133.457 128.707 133.553 128.896 133.683 129.049C133.814 129.201 133.983 129.316 134.189 129.395C134.399 129.473 134.655 129.512 134.956 129.512C135.519 129.512 135.933 129.352 136.199 129.031C136.468 128.711 136.603 128.26 136.603 127.678V122.621H137.662V127.613Z" fill="black"/>
<path d="M163.851 115.729L163.203 116.373L159.207 113.086L163.203 109.799L163.851 110.449L160.61 113.074L163.851 115.729Z" fill="black"/>
<path d="M126.155 110.449L126.797 109.799L130.793 113.086L126.797 116.373L126.155 115.729L129.396 113.098L126.155 110.449Z" fill="black"/>
<path d="M164.785 93.5547C166.612 95.2227 167.526 97.0781 167.526 99.1211C167.526 99.543 167.483 99.9805 167.395 100.434C167.308 100.887 167.159 101.352 166.949 101.828C166.739 102.301 166.456 102.781 166.099 103.27C165.746 103.758 165.3 104.248 164.761 104.74L164.16 104.137C164.933 103.383 165.51 102.596 165.891 101.775C166.271 100.955 166.462 100.096 166.462 99.1973C166.462 97.3379 165.695 95.666 164.16 94.1816L164.785 93.5547Z" fill="black"/>
<path d="M159.778 98.3301L158.333 99.748H157.292L158.523 98.3301H159.778ZM162.471 98.3301L160.812 99.748H159.778L161.092 98.3301H162.471Z" fill="black"/>
<path d="M152.57 97.1816C152.82 97.1816 153.054 97.2285 153.272 97.3223C153.494 97.416 153.686 97.5449 153.849 97.709C154.015 97.8691 154.146 98.0586 154.241 98.2773C154.336 98.4922 154.384 98.7227 154.384 98.9688C154.384 99.2148 154.336 99.4473 154.241 99.666C154.146 99.8809 154.015 100.07 153.849 100.234C153.686 100.395 153.494 100.521 153.272 100.615C153.054 100.709 152.82 100.756 152.57 100.756C152.32 100.756 152.085 100.709 151.863 100.615C151.645 100.521 151.452 100.395 151.286 100.234C151.123 100.07 150.994 99.8809 150.899 99.666C150.804 99.4473 150.756 99.2148 150.756 98.9688C150.756 98.7227 150.804 98.4922 150.899 98.2773C150.994 98.0586 151.123 97.8691 151.286 97.709C151.452 97.5449 151.645 97.416 151.863 97.3223C152.085 97.2285 152.32 97.1816 152.57 97.1816Z" fill="black"/>
<path d="M144.221 99.7773C144.221 100.363 144.368 100.797 144.661 101.078C144.954 101.359 145.341 101.5 145.821 101.5C146.3 101.5 146.685 101.359 146.974 101.078C147.264 100.797 147.408 100.363 147.408 99.7773V98.7812H148.33V99.9004C148.33 100.689 148.104 101.283 147.652 101.682C147.204 102.08 146.594 102.279 145.821 102.279C144.845 102.279 144.156 101.988 143.751 101.406C143.323 101.988 142.643 102.279 141.712 102.279C140.934 102.279 140.32 102.086 139.868 101.699C139.42 101.309 139.196 100.76 139.196 100.053V98.7812H140.112V99.7773C140.112 100.363 140.259 100.797 140.552 101.078C140.845 101.359 141.232 101.5 141.712 101.5C142.191 101.5 142.576 101.359 142.865 101.078C143.155 100.797 143.299 100.363 143.299 99.7773V98.7812H144.221V99.7773Z" fill="black"/>
<path d="M134.956 97.1816C135.206 97.1816 135.44 97.2285 135.658 97.3223C135.88 97.416 136.072 97.5449 136.235 97.709C136.401 97.8691 136.532 98.0586 136.627 98.2773C136.722 98.4922 136.77 98.7227 136.77 98.9688C136.77 99.2148 136.722 99.4473 136.627 99.666C136.532 99.8809 136.401 100.07 136.235 100.234C136.072 100.395 135.88 100.521 135.658 100.615C135.44 100.709 135.206 100.756 134.956 100.756C134.706 100.756 134.47 100.709 134.248 100.615C134.03 100.521 133.838 100.395 133.671 100.234C133.509 100.07 133.38 99.8809 133.285 99.666C133.19 99.4473 133.142 99.2148 133.142 98.9688C133.142 98.7227 133.19 98.4922 133.285 98.2773C133.38 98.0586 133.509 97.8691 133.671 97.709C133.838 97.5449 134.03 97.416 134.248 97.3223C134.47 97.2285 134.706 97.1816 134.956 97.1816Z" fill="black"/>
<path d="M128.771 98.3301L127.326 99.748H126.286L127.517 98.3301H128.771ZM131.465 98.3301L129.806 99.748H128.771L130.086 98.3301H131.465Z" fill="black"/>
<path d="M122.741 104.74C120.914 103.072 120 101.229 120 99.209C120 98.7363 120.048 98.2656 120.143 97.7969C120.242 97.3242 120.398 96.8516 120.613 96.3789C120.831 95.9062 121.116 95.4336 121.469 94.9609C121.826 94.4883 122.258 94.0195 122.765 93.5547L123.366 94.1582C121.828 95.6543 121.059 97.3125 121.059 99.1328C121.059 100.039 121.253 100.91 121.641 101.746C122.03 102.582 122.605 103.371 123.366 104.113L122.741 104.74Z" fill="black"/>
<path d="M164.41 89.5391H163.423L159.344 80H160.331L164.41 89.5391Z" fill="black"/>
<path d="M157.446 80L153.367 89.5391H152.38L156.459 80H157.446Z" fill="black"/>
<path d="M151.696 90.6816H145V89.8379H151.696V90.6816Z" fill="black"/>
<path d="M145 90.6816H138.304V89.8379H145V90.6816Z" fill="black"/>
<path d="M137.626 89.5391H136.639L132.559 80H133.547L137.626 89.5391Z" fill="black"/>
<path d="M130.662 80L126.583 89.5391H125.596L129.675 80H130.662Z" fill="black"/>
<path d="M217.75 127.613C217.75 128.035 217.688 128.418 217.565 128.762C217.447 129.102 217.27 129.393 217.036 129.635C216.802 129.873 216.515 130.059 216.174 130.191C215.837 130.32 215.448 130.385 215.008 130.385C214.525 130.385 214.114 130.322 213.777 130.197C213.44 130.072 213.165 129.896 212.951 129.67C212.741 129.439 212.586 129.164 212.487 128.844C212.392 128.523 212.344 128.166 212.344 127.771V122.621H213.403V127.689C213.403 127.99 213.431 128.254 213.486 128.48C213.545 128.707 213.641 128.896 213.771 129.049C213.902 129.201 214.071 129.316 214.277 129.395C214.487 129.473 214.743 129.512 215.044 129.512C215.607 129.512 216.021 129.352 216.287 129.031C216.556 128.711 216.691 128.26 216.691 127.678V122.621H217.75V127.613Z" fill="black"/>
<path d="M197.662 127.613C197.662 128.035 197.6 128.418 197.477 128.762C197.359 129.102 197.182 129.393 196.948 129.635C196.714 129.873 196.427 130.059 196.086 130.191C195.749 130.32 195.36 130.385 194.92 130.385C194.437 130.385 194.026 130.322 193.689 130.197C193.352 130.072 193.077 129.896 192.863 129.67C192.653 129.439 192.498 129.164 192.399 128.844C192.304 128.523 192.256 128.166 192.256 127.771V122.621H193.315V127.689C193.315 127.99 193.342 128.254 193.398 128.48C193.457 128.707 193.553 128.896 193.683 129.049C193.814 129.201 193.983 129.316 194.189 129.395C194.399 129.473 194.655 129.512 194.956 129.512C195.519 129.512 195.933 129.352 196.199 129.031C196.468 128.711 196.603 128.26 196.603 127.678V122.621H197.662V127.613Z" fill="black"/>
<path d="M223.851 115.729L223.203 116.373L219.207 113.086L223.203 109.799L223.851 110.449L220.61 113.074L223.851 115.729Z" fill="black"/>
<path d="M186.155 110.449L186.797 109.799L190.793 113.086L186.797 116.373L186.155 115.729L189.396 113.098L186.155 110.449Z" fill="black"/>
<path d="M224.785 93.5547C226.612 95.2227 227.526 97.0781 227.526 99.1211C227.526 99.543 227.483 99.9805 227.395 100.434C227.308 100.887 227.159 101.352 226.949 101.828C226.739 102.301 226.456 102.781 226.099 103.27C225.746 103.758 225.3 104.248 224.761 104.74L224.16 104.137C224.933 103.383 225.51 102.596 225.891 101.775C226.271 100.955 226.462 100.096 226.462 99.1973C226.462 97.3379 225.695 95.666 224.16 94.1816L224.785 93.5547Z" fill="black"/>
<path d="M219.778 98.3301L218.333 99.748H217.292L218.523 98.3301H219.778ZM222.471 98.3301L220.812 99.748H219.778L221.092 98.3301H222.471Z" fill="black"/>
<path d="M214.681 101.729L214.033 102.373L210.037 99.0859L214.033 95.7988L214.681 96.4492L211.44 99.0742L214.681 101.729Z" fill="black"/>
<path d="M204.221 99.7773C204.221 100.363 204.368 100.797 204.661 101.078C204.954 101.359 205.341 101.5 205.821 101.5C206.3 101.5 206.685 101.359 206.974 101.078C207.264 100.797 207.408 100.363 207.408 99.7773V98.7812H208.33V99.9004C208.33 100.689 208.104 101.283 207.652 101.682C207.204 102.08 206.594 102.279 205.821 102.279C204.845 102.279 204.156 101.988 203.751 101.406C203.323 101.988 202.643 102.279 201.712 102.279C200.934 102.279 200.32 102.086 199.868 101.699C199.42 101.309 199.196 100.76 199.196 100.053V98.7812H200.112V99.7773C200.112 100.363 200.259 100.797 200.552 101.078C200.845 101.359 201.232 101.5 201.712 101.5C202.191 101.5 202.576 101.359 202.865 101.078C203.155 100.797 203.299 100.363 203.299 99.7773V98.7812H204.221V99.7773Z" fill="black"/>
<path d="M192.851 96.4492L193.493 95.7988L197.489 99.0859L193.493 102.373L192.851 101.729L196.092 99.0977L192.851 96.4492Z" fill="black"/>
<path d="M188.771 98.3301L187.326 99.748H186.286L187.517 98.3301H188.771ZM191.465 98.3301L189.806 99.748H188.771L190.086 98.3301H191.465Z" fill="black"/>
<path d="M182.741 104.74C180.914 103.072 180 101.229 180 99.209C180 98.7363 180.048 98.2656 180.143 97.7969C180.242 97.3242 180.398 96.8516 180.613 96.3789C180.831 95.9062 181.116 95.4336 181.469 94.9609C181.826 94.4883 182.258 94.0195 182.765 93.5547L183.366 94.1582C181.828 95.6543 181.059 97.3125 181.059 99.1328C181.059 100.039 181.253 100.91 181.641 101.746C182.03 102.582 182.605 103.371 183.366 104.113L182.741 104.74Z" fill="black"/>
<path d="M224.41 89.5391H223.423L219.344 80H220.331L224.41 89.5391Z" fill="black"/>
<path d="M217.446 80L213.367 89.5391H212.38L216.459 80H217.446Z" fill="black"/>
<path d="M211.696 90.6816H205V89.8379H211.696V90.6816Z" fill="black"/>
<path d="M205 90.6816H198.304V89.8379H205V90.6816Z" fill="black"/>
<path d="M197.626 89.5391H196.639L192.559 80H193.547L197.626 89.5391Z" fill="black"/>
<path d="M190.662 80L186.583 89.5391H185.596L189.675 80H190.662Z" fill="black"/>
</svg>
